<?xml version="1.0" encoding="utf-8"?>
<!-- Generator: Adobe Illustrator 21.1.0, SVG Export Plug-In . SVG Version: 6.00 Build 0)  -->
<svg version="1.1" id="Layer_1" xmlns="http://www.w3.org/2000/svg" xmlns:xlink="http://www.w3.org/1999/xlink" x="0px" y="0px"
	 viewBox="0 0 1920 1080" style="enable-background:new 0 0 1920 1080;" xml:space="preserve">
<style type="text/css">
	.st0{fill:#85231B;}
	.st1{fill:#E4202C;}
	.st2{fill:#AE0827;}
</style>
<g>
	<path class="st0" d="M178,769.3l-14.1-51H89.1l-14.7,51H30.9L102.3,534h56.6l70.4,235.3H178z M100.1,680.5h53.2l-26-94.8
		L100.1,680.5z"/>
	<path class="st0" d="M278.7,594.7l33.5,119.8l35.4-119.8h42.6l-56.3,174.6h-51.3l-56.6-174.6H278.7z"/>
	<path class="st0" d="M549.7,748.4c-13.5,16.9-35.7,25.3-63.5,25.3c-27.2,0-48.5-8.1-62.3-25.3c-12.5-15.6-17.8-37.9-17.8-65.7
		c0-29.7,5.9-51.6,17.8-66.7c14.7-18.5,38.2-25.3,63.5-25.3c27.2,0,48.8,8.1,62.3,25c12.8,16,17.5,38.8,17.5,65.7
		C567.2,711.1,561.6,733.3,549.7,748.4z M507.8,729c6.3-8.4,9.1-22.5,9.1-46.9c0-24.4-2.8-38.5-9.1-46.9c-4.7-6.3-11.6-10-21-10
		s-16.3,3.8-21,10c-6.3,8.4-9.1,22.5-9.1,46.9c0,24.4,2.8,38.5,9.1,46.9c4.7,6.3,11.6,10,21,10S503.1,735.2,507.8,729z"/>
	<path class="st0" d="M710.2,767.1c0,0-13.1,4.4-34.1,4.4c-60.1,0-83.2-36.9-83.2-88.9c0-52.3,23.2-90.1,82.6-90.1
		c21,0,34.7,4.7,34.7,4.7v38.5h-2.5c0,0-12.8-5.3-26.6-5.3c-26,0-37.5,18.8-37.5,51.3c0,32.5,11.6,52.3,37.2,52.3
		c13.8,0,26.9-5.6,26.9-5.6h2.5V767.1z"/>
	<path class="st0" d="M871.4,769.3l-14.1-51h-74.8l-14.7,51h-43.5L795.7,534h56.6l70.4,235.3H871.4z M793.5,680.5h53.2l-26-94.8
		L793.5,680.5z"/>
	<path class="st0" d="M1093.9,526.8v242.5h-36.3l-9.1-27.2c-5,19.1-21.3,30.7-46.9,30.7c-20.7,0-35.7-7.5-46.3-20.3
		c-13.8-16.6-19.4-41.3-19.4-68.5c0-27.9,5.9-54.1,19.4-70.7c11.3-14.1,28.5-21.9,49.4-21.9c21.6,0,35.4,8.1,41.3,25v-89.5H1093.9z
		 M994.7,639.8c-5.6,8.4-8.1,21.9-8.1,42.6s2.5,34.1,8.1,42.6c5,7.2,12.5,11,21.6,11c9.7,0,17.2-4.1,22.2-11.3
		c5.6-8.4,8.1-21.6,8.1-42.2s-2.5-34.1-8.1-42.6c-4.1-6.3-11.3-11-21.9-11C1005.9,628.8,998.7,633.5,994.7,639.8z"/>
	<path class="st0" d="M1174.3,594.7l33.5,119.8l35.4-119.8h42.6l-56.3,174.6H1178l-56.6-174.6H1174.3z"/>
	<path class="st0" d="M1361.7,531.5v43.2h-48.8v-43.2H1361.7z M1361.1,594.7v174.6h-47.6V594.7H1361.1z"/>
	<path class="st0" d="M1506.9,636.6h-2.5c0,0-19.7-7.8-37.5-7.8c-15,0-21.3,5.6-21.3,11.9c0,12.5,24.1,19.7,40.4,29.4
		c13.8,8.1,28.2,21.9,28.2,47.6c0,33.2-24.1,53.8-71.3,53.8c-27.2,0-44.1-6.9-44.1-6.9v-38.2h2.5c0,0,22.5,9.1,41.6,9.1
		c16.6,0,23.5-6.6,23.5-14.4c0-14.7-22.8-18.1-44.1-32.2c-13.1-8.8-24.4-21-24.4-43.5c0-33.8,25.7-52.9,68.5-52.9
		c23.8,0,40.7,5.9,40.7,5.9V636.6z"/>
	<path class="st0" d="M1682.4,748.4c-13.5,16.9-35.7,25.3-63.5,25.3c-27.2,0-48.5-8.1-62.3-25.3c-12.5-15.6-17.8-37.9-17.8-65.7
		c0-29.7,5.9-51.6,17.8-66.7c14.7-18.5,38.2-25.3,63.5-25.3c27.2,0,48.8,8.1,62.3,25c12.8,16,17.5,38.8,17.5,65.7
		C1700,711.1,1694.3,733.3,1682.4,748.4z M1640.5,729c6.3-8.4,9.1-22.5,9.1-46.9c0-24.4-2.8-38.5-9.1-46.9c-4.7-6.3-11.6-10-21-10
		s-16.3,3.8-21,10c-6.3,8.4-9.1,22.5-9.1,46.9c0,24.4,2.8,38.5,9.1,46.9c4.7,6.3,11.6,10,21,10S1635.8,735.2,1640.5,729z"/>
	<path class="st0" d="M1832,641.7c0,0-10-2.2-19.7-2.2c-30.7,0-30,22.2-30,34.4v95.4h-48.5V594.7h36.3l9.7,34.4
		c6.3-28.8,23.5-36.3,48.5-36.3h3.8V641.7z"/>
</g>
<g>
	<path class="st1" d="M115.2,157.4v59h10.9c18.3,0,30.6-2.3,36.8-6.8c6.2-4.7,9.5-11.3,9.5-20.1c0-9.9-3.7-17.7-11.1-23.6
		c-7.4-5.7-19.9-8.6-37-8.6H115.2z M115.2,69.5v48.5h9.5c10.7,0,18.7-2.3,23.8-6.8c5.3-4.5,7.8-10.5,7.8-18.3
		c0-7.2-2.5-12.9-7.4-17.1c-4.9-4.3-12.5-6.4-22.4-6.4h-11.3V69.5z M71.4,258.2V27.8h36.2c21,0,36.4,1.4,46.2,4.1
		c13.8,3.7,24.7,10.5,32.9,20.5C194.9,62.3,199,74,199,87.5c0,8.8-1.9,16.8-5.7,24c-3.7,7.2-9.7,13.8-18.1,20.1
		c14,6.6,24.2,14.8,30.8,24.7c6.4,9.9,9.7,21.6,9.7,35.1c0,12.9-3.3,24.7-10.1,35.5c-6.6,10.7-15.4,18.7-25.9,24
		c-10.5,5.3-25.1,8-43.8,8H71.4V258.2z"/>
	<path class="st1" d="M316.9,122.9c-13.3,0-24.2,4.7-32.9,14c-8.8,9.4-13.1,21.2-13.1,35.9c0,14.8,4.5,26.9,13.3,36.4
		c9,9.5,19.9,14.2,32.9,14.2c13.4,0,24.6-4.7,33.3-14c8.8-9.4,13.3-21.6,13.3-36.8c0-14.8-4.5-26.9-13.3-36.1
		C341.7,127.4,330.6,122.9,316.9,122.9 M361.9,87.9h42.7v170.5h-42.7v-18.1c-8.4,8-16.8,13.6-25.1,17.1s-17.5,5.3-27.3,5.3
		c-22,0-41.1-8.6-57.1-25.5c-16-17.1-24.2-38.4-24.2-63.7c0-26.3,7.8-47.9,23.4-64.7s34.5-25.1,56.7-25.1c10.1,0,19.9,1.9,28.8,5.8
		s17.3,9.7,24.9,17.3V87.9H361.9z"/>
	<polygon class="st1" points="423.7,22 423.7,258.2 466.4,258.2 466.4,179.6 538.7,258.2 591.9,258.2 509.6,169.5 583.1,87.9 
		529.3,87.9 466.4,158 466.4,22 	"/>
	<path class="st1" d="M701,151.8c-2.7-9.5-8.4-17.1-16.8-23.2c-8.4-6-17.9-9-29-9c-11.9,0-22.4,3.3-31.4,9.9
		c-5.7,4.1-10.9,11.5-15.8,22h93V151.8z M743.7,185.3H606.3c1.9,12.1,7.2,21.8,16,28.8c8.6,7.2,19.7,10.7,32.9,10.7
		c16,0,29.6-5.7,41.1-16.8l36.1,17c-9,12.7-19.7,22.2-32.3,28.3c-12.5,6-27.5,9.2-44.6,9.2c-26.7,0-48.5-8.4-65.3-25.3
		c-16.8-17-25.1-38-25.1-63.3c0-25.9,8.4-47.5,25.1-64.7c16.8-17.1,37.8-25.7,63.1-25.7c26.9,0,48.7,8.6,65.5,25.7
		c16.8,17.1,25.1,39.9,25.1,68L743.7,185.3z"/>
	<path class="st1" d="M759.9,87.9h36.6v21.4c3.9-8.4,9.2-14.8,15.8-19.3c6.6-4.5,13.8-6.6,21.6-6.6c5.5,0,11.3,1.6,17.3,4.5
		L838,124.7c-5.1-2.5-9.2-3.7-12.5-3.7c-6.6,0-12.1,4.1-16.8,12.3c-4.5,8.2-6.8,24.2-6.8,47.9l0.2,8.4v69h-42.5V87.9H759.9z"/>
	<polygon class="st2" points="221.4,273.4 167.6,434.1 114.1,273.4 71.4,273.4 31.4,503.7 74.3,503.7 99.6,358.3 148.2,503.7 
		186.7,503.7 235.7,358.3 260.4,503.7 302.9,503.7 264.1,273.4 	"/>
	<path class="st2" d="M478.3,367.9l-35.7,19.5c-6.6-7-13.3-11.9-19.9-14.6c-6.6-2.7-14.2-4.1-23-4.1c-16,0-29,4.7-38.8,14.2
		c-9.9,9.5-14.8,21.8-14.8,36.6c0,14.4,4.7,26.3,14.2,35.5c9.5,9.2,22,13.8,37.4,13.8c19.1,0,34.1-6.4,44.6-19.5l33.7,23
		c-18.3,23.8-44,35.7-77.4,35.7c-30,0-53.4-9-70.3-26.7c-17-17.7-25.5-38.6-25.5-62.4c0-16.6,4.1-31.8,12.5-45.6
		c8.2-13.8,19.7-24.7,34.5-32.7c14.8-8,31.4-11.9,49.5-11.9c17,0,32.2,3.3,45.6,10.1C458.8,345.9,469.7,355.4,478.3,367.9"/>
	<polygon class="st2" points="493.9,273.4 538.1,273.4 538.1,352.9 600.6,273.4 653.3,273.4 572.8,376.3 661.1,503.7 609.2,503.7 
		538.1,401.4 538.1,503.7 493.9,503.7 	"/>
	<path class="st2" d="M776.8,397.3c-2.7-9.5-8.4-17.1-16.8-23.2c-8.4-6-17.9-9-29-9c-11.9,0-22.4,3.3-31.4,9.9
		c-5.7,4.1-10.9,11.5-15.8,22h93V397.3z M819.7,431H682.3c1.9,12.1,7.2,21.8,16,28.8c8.6,7.2,19.7,10.7,32.9,10.7
		c16,0,29.6-5.7,41.1-16.8l36.1,17c-9,12.7-19.7,22.2-32.3,28.3c-12.5,6-27.5,9.2-44.6,9.2c-26.7,0-48.5-8.4-65.3-25.3
		c-16.8-17-25.1-38-25.1-63.3c0-25.9,8.4-47.5,25.1-64.7c16.8-17.1,37.8-25.7,63.1-25.7c26.9,0,48.7,8.6,65.5,25.7
		c16.8,17.1,25.1,39.9,25.1,68L819.7,431z"/>
	<path class="st2" d="M834.5,333.4h42.7v17.5c9.7-8.2,18.5-13.8,26.3-17.1c7.8-3.1,16-4.9,24.2-4.9c17,0,31.2,5.8,43.1,17.7
		c9.9,9.9,14.8,24.9,14.8,44.4v112.6h-42.3v-74.6c0-20.3-1-33.9-2.7-40.5c-1.8-6.6-5.1-11.7-9.5-15.2c-4.5-3.5-10.1-5.3-16.8-5.3
		c-8.6,0-16,2.9-22.2,8.8c-6.2,5.8-10.5,13.8-12.9,24c-1.2,5.3-1.9,16.8-1.9,34.5v68.4h-42.7V333.4z"/>
	<polygon class="st2" points="1009.3,333.4 1139.8,333.4 1063.3,467.7 1135.4,467.7 1135.4,503.7 997.6,503.7 1074.6,369.6 
		1009.3,369.6 	"/>
	<path class="st2" d="M1345,397.3c-2.7-9.5-8.4-17.1-16.8-23.2c-8.4-6-17.9-9-29-9c-11.9,0-22.4,3.3-31.4,9.9
		c-5.7,4.1-10.9,11.5-15.8,22h93V397.3z M1387.7,431h-137.4c1.9,12.1,7.2,21.8,16,28.8c8.6,7.2,19.7,10.7,32.9,10.7
		c16,0,29.6-5.7,41.1-16.8l36.1,17c-9,12.7-19.7,22.2-32.3,28.3c-12.5,6-27.5,9.2-44.6,9.2c-26.7,0-48.5-8.4-65.3-25.3
		s-25.1-38-25.1-63.3c0-25.9,8.4-47.5,25.1-64.7c16.8-17.1,37.8-25.7,63.1-25.7c26.9,0,48.7,8.6,65.5,25.7
		c16.8,17.1,25.1,39.9,25.1,68L1387.7,431z"/>
	<rect x="1151.9" y="333.4" class="st2" width="42.7" height="170.5"/>
	<rect x="1151.9" y="286.8" class="st2" width="42.7" height="32.3"/>
	<rect x="1398.2" y="471.4" class="st2" width="40.3" height="32.3"/>
</g>
</svg>
